<svg xmlns="http://www.w3.org/2000/svg" xmlns:svg="http://www.w3.org/2000/svg" id="svg1" width="512" height="512" version="1.1" viewBox="0 0 512 512" xml:space="preserve"><g id="layer1"><path style="opacity:1;fill:red;stroke:#000;stroke-opacity:1" id="path1" d="m 0.55914909,345.55213 0.1170171,-70.83549 0.2897854,-26.75686 0.86935651,-24.43858 c 0,0 1.3523323,-32.06959 15.0688459,-41.14954 13.716513,-9.07994 372.181166,-98.720245 372.181166,-98.720245 0,0 23.9556,-7.53443 33.42193,4.05699 9.46632,11.59142 24.72836,97.754305 24.53517,105.675105 -0.19319,7.92081 -0.38638,30.91045 -0.38638,30.91045 l -95.43602,7.72762 0.77276,74.95784 c 0,0 105.8683,13.90971 99.8794,23.9556 -5.9889,10.0459 -3.28424,74.18509 -3.28424,74.18509 l -92.15179,-7.9208 c 0,0 -0.77276,-67.42343 -38.83125,-68.19619 -38.0585,-0.77276 -42.88825,39.9904 -39.60402,53.32053 3.28424,13.33013 -29.6381,1.71728 -29.6381,1.71728 l -1.85192,-141.97346 -70.51447,5.60252 1.35233,127.11924 -86.645861,-11.9778 0.392043,-17.87402 -1.878335,-8.26468 -2.390609,-5.15688 -2.732123,-5.29349 -2.42476,-2.97119 -2.493063,-1.84418 c 0,0 -1.331911,-0.99039 -1.741729,-1.02455 -0.409819,-0.0342 -3.141942,-0.54642 -3.141942,-0.54642 l -1.263608,0.23906 -0.853788,0.27321 c 0,0 -0.751334,0.20491 -0.887941,0.34152 -0.136606,0.1366 -1.161152,0.51227 -1.161152,0.51227 l -0.990395,0.61473 -1.912487,0.64888 c 0,0 -1.229456,0.99039 -1.33191,1.127 -0.102455,0.13661 -1.229456,1.09285 -1.400214,1.33191 -0.170757,0.23906 -2.117396,1.46852 -2.117396,1.46852 0,0 -0.307364,0.92209 -0.409818,1.16115 -0.102455,0.23906 -0.478122,1.70758 -0.580576,2.01494 -0.102455,0.30736 -1.434365,2.90288 -1.434365,2.90288 0,0 -0.443971,0.85379 -0.546425,1.22946 -0.102455,0.37566 -0.375667,2.04909 -0.375667,2.04909 0,0 -0.170758,0.81964 -0.273213,1.02455 -0.102454,0.20491 -0.853788,2.21985 -0.88794,2.62967 -0.03415,0.40981 0.102455,1.22945 0.102455,1.63927 0,0.40982 -0.341516,2.35646 -0.409819,2.80043 -0.0683,0.44397 0,1.29776 0.03415,1.63927 0.03415,0.34152 0.0683,3.48346 0,4.09819 -0.0683,0.61473 -0.0683,2.21985 -0.03415,2.59551 0.03415,0.37567 0.136606,3.27855 0.136606,3.62007 0,0.34151 -0.03415,2.3223 -0.03415,2.3223 l -0.136606,0.9904 -11.065102,-1.98079 1.259182,-98.35107 -34.194688,2.80126 0.386381,89.7369 z"/><ellipse style="opacity:1;fill:#1a1a1a;stroke-width:1.61218" id="path2" cx="317.963" cy="375.207" rx="32.99" ry="38.024"/><ellipse style="opacity:1;fill:#1a1a1a;stroke-width:.878865" id="path2-6" cx="74.464" cy="347.671" rx="15.31" ry="24.348" transform="matrix(0.99981696,0.01913229,0,1,0,0)"/><path style="opacity:1;fill:red;stroke:#000;stroke-opacity:1" id="path3" d="m 446.61251,225.27038 57.238,15.2999 -4.2348,-46.71932 -3.68836,-13.52401 -5.19104,-15.02668 -4.78121,-13.79723 -4.91783,-9.42583 -6.6937,-10.24546 -2.86873,-5.05443 -4.23479,-5.19103 -3.82498,-4.50801 -3.55176,-3.00533 -6.55709,-5.32765 -4.3714,-3.27854 -6.96692,-5.600855 -6.96691,-4.91782 c 0,0 -3.96158,-2.59552 -4.50801,-3.00534 -0.54642,-0.40982 -7.92316,-4.64461 -7.92316,-4.64461 l -1.22945,-0.81964 3.55176,5.73746 c 0,0 1.77588,3.00534 1.91248,4.64462 0.13661,1.63927 0.81964,9.152605 1.63928,9.972245 0.81964,0.81963 1.50267,3.41515 2.04909,6.55709 0.54643,3.14195 1.91249,8.46959 2.59552,10.24547 0.68303,1.77588 4.09819,10.38207 4.23479,11.20171 0.13661,0.81963 0.81964,4.91782 0.81964,6.01067 0,1.09285 0.68303,4.23479 1.22945,5.32764 0.54643,1.09285 1.77588,6.96692 1.77588,6.96692 l 0.54643,5.05442 v 7.10353 c 0,0 0.81964,3.00533 0.68303,5.73746 -0.13661,2.73212 0.81964,8.8794 0.95624,9.56243 0.13661,0.68303 0.40982,2.45891 0.81964,4.3714 0.40982,1.91248 1.36606,4.508 1.50267,5.87406 0.13661,1.36607 0.40982,4.09819 0.54642,5.46425 0.13661,1.36606 0.54643,5.05443 0.54643,5.87407 0,0.81963 -0.27321,5.46425 -0.27321,6.42049 0,0.95624 -0.27322,6.42049 -0.27322,7.51334 0,1.09285 0.40982,9.15261 0.40982,9.15261 z"/><path style="opacity:1;fill:#000" id="path4" d="m 460.17936,210.19107 -4.057,-36.70616 c 0,0 16.13139,4.25019 16.51778,4.73316 0.38638,0.48298 12.26758,5.31274 12.26758,5.31274 0,0 1.25574,1.64211 2.0285,2.02849 0.77276,0.38638 5.40933,3.18764 5.9889,3.76722 0.57957,0.57957 4.34678,3.09104 4.34678,3.09104 l 1.73872,2.0285 1.35233,7.14804 c 0,0 -0.28979,6.18209 -0.0966,6.56847 0.19319,0.38638 1.44893,6.47188 1.44893,6.47188 l 0.0966,6.95485 -0.0966,4.25019 -3.47743,-2.31829 -4.63656,-2.0285 -8.0174,-2.51147 -5.11955,-2.22169 c 0,0 -7.34123,-2.12509 -7.72761,-2.22169 -0.38638,-0.0966 -4.25019,-2.12509 -5.02295,-2.12509 -0.77276,0 -5.69911,-1.64212 -5.69911,-1.64212 z"/><path style="opacity:1;fill:#000" id="path5" d="m 448.78113,155.32502 -4.15359,-12.0744 -2.22169,-9.56292 c 0,0 -3.28424,-8.50037 -3.67062,-10.0459 -0.38638,-1.54552 -4.05699,-10.33568 -4.63656,-11.59142 -0.57958,-1.25573 -4.34679,-8.59696 -4.34679,-8.59696 l -3.9604,-6.858255 8.69357,1.54552 6.27868,2.125085 4.73316,2.60807 c 0,0 0.48298,1.73872 2.1251,2.60807 1.64212,0.86936 5.11954,1.64212 5.8923,2.70467 0.77276,1.06255 3.86381,2.70466 4.92636,3.76721 1.06254,1.06255 2.70466,3.38083 3.38083,3.67062 0.67616,0.28978 2.0285,1.15914 2.0285,1.15914 0,0 1.54552,2.51147 2.02849,3.09104 0.48298,0.57957 2.99445,3.38083 3.57403,4.53998 0.57957,1.15914 1.64211,2.12509 2.31828,3.28423 0.67617,1.15914 3.86381,7.53442 3.86381,7.53442 l 2.12509,3.47743 4.25019,5.31273 c 0,0 2.02849,2.1251 2.22169,3.67062 0.19319,1.54552 0.86935,3.67062 0.86935,3.67062 0,0 0.57957,0.67616 0.67617,1.15914 0.0966,0.48297 1.35233,3.09104 1.54552,4.25019 0.19319,1.15914 0.96595,2.22168 1.15914,3.76721 0.19319,1.54552 0.57957,4.82976 0.96595,5.50592 0.38638,0.67617 1.83531,2.70467 2.1251,4.44338 0.28978,1.73871 0.96595,3.28423 1.35233,4.34678 0.38638,1.06255 0.86936,4.15359 0.86936,4.15359 l -13.42673,-8.79016 -31.68321,-14.39268 z"/><path style="opacity:1;fill:red;stroke:#000;stroke-opacity:1" id="path6" d="m 352.08937,306.88283 16.90416,-7.14804 9.8044,-4.34678 1.64212,-0.33809 -0.28978,-57.08774 -28.88196,-5.9889 z"/><path style="opacity:1;fill:red;stroke:#000;stroke-opacity:1" id="path7" d="m 379.71559,237.91388 102.00449,-3.47742 -36.22319,-9.85271 -94.08368,7.72761 z"/><path style="opacity:1;fill:red;stroke:#000;stroke-opacity:1" id="path8" d="m 352.18597,307.07602 46.55887,7.82421 c 0,0 39.70061,8.11399 41.14954,8.50037 1.44892,0.38638 12.55737,3.86381 12.17099,5.9889 -0.38638,2.1251 0.77276,4.25019 1.8353,4.73317 1.06255,0.48297 28.88196,-2.22169 28.88196,-2.22169 l 7.53442,-5.60252 -4.92635,-13.61992 -105.48192,-17.9667 z"/><path style="opacity:1;fill:#000;stroke:#000;stroke-opacity:1" id="path10" d="m 487.38946,307.91713 -2.73212,-71.51334 14.61686,4.02988 1.22945,65.91249 -13.3874,0.95624 -0.20491,0.68303 z"/><path style="opacity:1;fill:red;stroke:#000;stroke-opacity:1" id="path11" d="m 380.35851,238.11137 100.33725,-3.48346 3.07364,0.95624 2.1857,76.77268 -105.05016,-17.89541 z"/><path style="opacity:1;fill:#000;stroke:#000;stroke-opacity:1" id="path9" d="m 386.36918,245.28319 0.61473,38.45464 c 0,0 -0.47812,5.60086 12.15795,6.6254 12.63607,1.02455 70.42049,8.33298 70.42049,8.33298 0,0 11.74813,3.27855 11.74813,-7.51334 0,-10.79189 -1.63927,-42.96265 -1.63927,-42.96265 0,0 3.34685,-11.67983 -10.51868,-9.35752 -13.86552,2.32231 -74.72358,1.98079 -74.72358,1.98079 0,0 -7.92316,0.0683 -8.05977,4.4397 z"/><path style="opacity:1;fill:red;stroke:#000;stroke-opacity:1" id="path12" d="m 451.87218,333.4465 30.91045,-1.15914 6.76166,-5.02295 -0.77276,-7.53442 -2.1251,-11.39823 11.59142,-1.15915 3.47743,7.92081 6.18209,3.09104 2.70466,4.44338 v 8.30718 4.63657 l 0.57958,11.59142 c 0,0 -1.73872,4.82976 -1.35234,7.53443 0.38638,2.70466 0.19319,11.20503 0.19319,13.33013 0,2.12509 -0.38638,6.76166 0,7.53442 0.38638,0.77276 -0.77276,4.44338 -0.77276,4.44338 l -0.38638,1.9319 c 0,0 -2.51147,0.96595 -3.47742,1.35233 -0.96596,0.38638 -3.86381,3.67062 -3.86381,3.67062 l -4.63657,1.73871 -4.057,2.89786 c 0,0 -1.15914,0.19319 -2.70466,0.96595 -1.54552,0.77276 -4.63657,2.12509 -4.63657,2.12509 0,0 -2.89785,1.73872 -5.60252,2.89786 -2.70466,1.15914 -3.28423,1.54552 -5.21614,1.73871 -1.9319,0.19319 -7.53442,1.73871 -9.46632,2.70467 -1.93191,0.96595 -2.89786,1.54552 -5.60252,2.51147 -2.70467,0.96595 -4.25019,1.15914 -5.02295,1.35233 -0.77276,0.19319 -4.82976,-1.15914 -4.82976,-1.15914 l -0.57957,-4.057 v -6.95485 l -0.38638,-8.11399 0.19319,-9.27314 c 0,0 0,-4.44338 0,-5.9889 0,-1.54552 0.57957,-9.07994 0.77276,-10.81866 0.19319,-1.73871 0.57957,-6.56847 0.38638,-8.11399 -0.19319,-1.54552 -0.77276,-7.53442 -0.77276,-7.53442 l 0.38638,-4.25019 1.73871,-3.86381 z"/><ellipse style="opacity:1;fill:#ff0;stroke:#000;stroke-opacity:1" id="path13" cx="471.338" cy="354.09" rx="2.869" ry="7.377"/><ellipse style="opacity:1;fill:#ff0;stroke:#000;stroke-opacity:1" id="path14" cx="510.476" cy="341.693" rx="1.503" ry="5.157"/><path style="opacity:1;fill:#917c6f;stroke:#000;stroke-opacity:1" id="path15" d="m 489.30195,342.20528 18.78335,-5.94237 0.1366,43.37247 -16.66595,9.63074 z"/><path style="opacity:1;fill:red;stroke:#000;stroke-opacity:1" id="path16" d="m 496.13226,376.01531 c 0.81963,0 9.49413,-5.32764 9.49413,-5.32764 l 0.68303,8.12807 -10.38207,6.96692 z"/><path style="opacity:1;fill:red;stroke:#000;stroke-opacity:1" id="path17" d="m 179.82062,369.66313 27.18464,3.00533 0.34151,-19.12486 -27.73106,-2.66382 z"/><path style="opacity:1;fill:red;stroke:#000;stroke-opacity:1" id="path18" d="m 213.49405,354.02172 29.84845,2.52721 1.22946,20.35433 -31.28282,-3.96158 z"/><path style="opacity:1;fill:red;stroke:#000;stroke-opacity:1" id="path19" d="m 31.490024,336.15116 13.619918,0.57957 -0.0966,14.97226 -13.813108,-1.44893 z"/><path style="opacity:1;fill:red;stroke:#000;stroke-opacity:1" id="path20" d="m 14.682465,335.18521 c 0.579571,0 13.523323,0.77276 13.523323,0.77276 l -0.289785,12.75057 -13.716514,-0.96596 z"/><path style="opacity:1;fill:#000;stroke:#000;stroke-opacity:1" id="path21" d="m 16.034797,267.472 12.170991,-0.38638 -0.19319,67.03705 -12.750562,-0.67617 z"/><path style="opacity:1;fill:#000;stroke:#000;stroke-opacity:1" id="path22" d="m 33.228737,268.14817 11.9778,-0.19319 0.19319,66.07109 -12.750561,0.0966 z"/><path style="opacity:1;fill:#ff0;stroke:#ffdb00;stroke-opacity:1" id="path23" d="M 33.808307,307.559 45.109942,290.46165"/><path style="opacity:1;fill:#ff0;stroke:#ffdb00;stroke-opacity:1" id="path24" d="M 34.194688,319.05382 45.303132,303.79178"/><path style="opacity:1;fill:#ff0;stroke:#ffdb00;stroke-opacity:1" id="path25" d="M 27.143241,313.83768 17.38713,297.60969"/><path style="opacity:1;fill:#ff0;stroke:#ffdb00;stroke-opacity:1" id="path26" d="M 26.853456,300.50755 17.77351,286.69444"/><path style="opacity:1;fill:#333;stroke:#000;stroke-opacity:1" id="path27" d="m 216.27657,350.35065 25.30793,2.1251 1.64212,-101.52152 -29.17174,2.60807 z"/><path style="opacity:1;fill:#333;stroke:#000;stroke-opacity:1" id="path28" d="m 205.6511,349.86768 -23.37603,-1.73872 -0.86935,-90.89604 24.53517,-1.44893 z"/><path style="opacity:1;fill:#333;stroke:#ffcd00;stroke-opacity:1" id="path29" d="M 204.20218,306.68964 183.04784,282.05787"/><path style="opacity:1;fill:#333;stroke:#ffcd00;stroke-opacity:1" id="path30" d="M 204.58856,324.65634 183.43422,299.05862"/><path style="opacity:1;fill:#333;stroke:#ffcd00;stroke-opacity:1" id="path31" d="m 217.04933,327.84398 24.82496,-24.0522"/><path style="opacity:1;fill:#333;stroke:#ffcd00;stroke-opacity:1" id="path32" d="m 217.14593,310.36026 25.30793,-27.14325"/><path style="opacity:1;fill:#000;stroke:#000;stroke-opacity:1;fill-opacity:1" id="path33" d="m 13.523323,222.55526 -7.7276132,1.54552 -1.3523323,-8.69357 1.738713,-10.62546 8.3071835,-16.0348 1.931904,0.19319 z"/><path style="opacity:1;fill:#000;fill-opacity:1;stroke:#000;stroke-opacity:1" id="path34" d="m 47.911201,216.37317 -31.103643,5.21613 2.511475,-35.35383 31.876404,-8.88675 z"/><path style="opacity:1;fill:#000;fill-opacity:1;stroke:#000;stroke-opacity:1" id="path35" d="m 84.230982,209.22512 -31.683213,6.76167 2.704664,-39.9904 31.683214,-6.95485 z"/><path style="opacity:1;fill:#000;fill-opacity:1;stroke:#000;stroke-opacity:1" id="path36" d="m 88.094789,207.87279 3.091045,-40.37678 37.092546,-10.62546 -2.31829,45.20653 z"/><path style="opacity:1;fill:#000;fill-opacity:1;stroke:#000;stroke-opacity:1" id="path37" d="m 129.63071,200.91794 4.44338,-44.82016 43.27463,-10.81865 -1.73871,48.49077 z"/><path style="opacity:1;fill:#000;fill-opacity:1;stroke:#000;stroke-opacity:1" id="path38" d="m 180.24657,190.09928 3.28424,-47.9112 63.17324,-16.0348 0.57957,56.21839 z"/><path style="opacity:1;fill:#000;fill-opacity:1;stroke:#000;stroke-opacity:1" id="path39" d="m 333.06012,165.7573 -79.59441,15.06885 v -55.83201 l 80.56036,-18.15989 z"/><path style="opacity:1;fill:#000;fill-opacity:1;stroke:#000;stroke-opacity:1" id="path40" d="m 342.52645,165.7573 -0.96595,-60.08219 53.70691,-14.296086 17.19394,9.852706 11.59142,28.0126 5.60252,20.47817 -2.89786,4.63657 c 0,0 -5.79571,0.96595 -8.30718,0.96595 -2.51148,0 -75.9238,10.43228 -75.9238,10.43228 z"/><path style="opacity:1;fill:#000;fill-opacity:1;stroke:#000;stroke-opacity:1" id="path41" d="m 52.740959,263.51161 28.205788,-0.57958 2.704664,-0.19319 -1.159142,43.66102 -31.683213,-2.1251 z"/><path style="opacity:1;fill:#000;fill-opacity:1;stroke:#000;stroke-opacity:1" id="path42" d="m 88.86755,261.77289 34.96745,-2.89785 0.77276,46.75206 -38.638065,0.19319 z"/><path style="opacity:1;fill:#000;fill-opacity:1;stroke:#000;stroke-opacity:1" id="path43" d="m 130.01709,259.45461 42.88825,-3.47743 1.35233,49.26354 -44.82015,0.57957 z"/><path style="opacity:1;fill:#000;fill-opacity:1;stroke:#000;stroke-opacity:1" id="path44" d="m 254.43166,250.37466 78.62846,-4.63656 1.73872,39.41082 -80.94675,1.15914 z"/><path style="opacity:1;fill:#000;fill-opacity:1;stroke:#000;stroke-opacity:1" id="path45" d="m 254.22412,288.10245 79.77801,-0.68303 0.40982,17.34899 -79.77801,0.27321 z"/></g></svg>