<?xml version="1.0" encoding="UTF-8" standalone="no"?>
<!-- Created with Inkscape (http://www.inkscape.org/) -->

<svg
   width="512"
   height="512"
   viewBox="0 0 512 512"
   version="1.1"
   id="svg1"
   inkscape:version="1.3 (0e150ed6c4, 2023-07-21)"
   sodipodi:docname="icon.svg"
   xmlns:inkscape="http://www.inkscape.org/namespaces/inkscape"
   xmlns:sodipodi="http://sodipodi.sourceforge.net/DTD/sodipodi-0.dtd"
   xmlns="http://www.w3.org/2000/svg"
   xmlns:svg="http://www.w3.org/2000/svg">
  <sodipodi:namedview
     id="namedview1"
     pagecolor="#ffffff"
     bordercolor="#000000"
     borderopacity="0.25"
     inkscape:showpageshadow="2"
     inkscape:pageopacity="0.0"
     inkscape:pagecheckerboard="0"
     inkscape:deskcolor="#d1d1d1"
     inkscape:document-units="px"
     inkscape:zoom="1.8164063"
     inkscape:cx="-28.627957"
     inkscape:cy="266.46021"
     inkscape:window-width="3832"
     inkscape:window-height="1276"
     inkscape:window-x="0"
     inkscape:window-y="788"
     inkscape:window-maximized="0"
     inkscape:current-layer="layer1" />
  <defs
     id="defs1" />
  <g
     inkscape:label="Layer 1"
     inkscape:groupmode="layer"
     id="layer1">
    <rect
       style="fill:#000000;stroke-width:1.36319;stroke-linecap:square;paint-order:stroke markers fill"
       id="rect1"
       width="490.58923"
       height="153.28549"
       x="11.8916"
       y="242.77122" />
    <rect
       style="fill:#00ff00;stroke-width:1.54276;stroke-linecap:square;paint-order:stroke markers fill"
       id="rect2-2"
       width="60.150085"
       height="45.653446"
       x="12.965426"
       y="291.45392" />
    <rect
       style="fill:#ff00ff;stroke-width:1.54276;stroke-linecap:square;paint-order:stroke markers fill"
       id="rect2-5-0"
       width="60.150085"
       height="45.653446"
       x="74.084595"
       y="291.45392" />
    <rect
       style="fill:#00ff00;stroke-width:1.54276;stroke-linecap:square;paint-order:stroke markers fill"
       id="rect2-8-6"
       width="60.150085"
       height="45.653446"
       x="135.56775"
       y="291.45392" />
    <rect
       style="fill:#ff00ff;stroke-width:1.54276;stroke-linecap:square;paint-order:stroke markers fill"
       id="rect2-5-9-1"
       width="60.150085"
       height="45.653446"
       x="196.68692"
       y="291.45392" />
    <rect
       style="fill:#00ff00;stroke-width:1.54276;stroke-linecap:square;paint-order:stroke markers fill"
       id="rect2-1-5"
       width="60.150085"
       height="45.653446"
       x="257.84406"
       y="291.45392" />
    <rect
       style="fill:#00ff00;stroke-width:1.54276;stroke-linecap:square;paint-order:stroke markers fill"
       id="rect2-5-2-5"
       width="60.150085"
       height="45.653446"
       x="318.96323"
       y="291.45392" />
    <rect
       style="fill:#ff00ff;stroke-width:1.54276;stroke-linecap:square;paint-order:stroke markers fill"
       id="rect2-8-9-4"
       width="60.150085"
       height="45.653446"
       x="380.44638"
       y="291.45392" />
    <rect
       style="fill:#ff00ff;stroke-width:1.54276;stroke-linecap:square;paint-order:stroke markers fill"
       id="rect2-5-9-3-7"
       width="60.150085"
       height="45.653446"
       x="441.56552"
       y="291.45392" />
    <rect
       style="fill:#00ff00;stroke-width:1.54276;stroke-linecap:square;paint-order:stroke markers fill"
       id="rect2"
       width="60.150085"
       height="45.653446"
       x="13.123296"
       y="242.77122" />
    <rect
       style="fill:#ff00ff;stroke-width:1.54276;stroke-linecap:square;paint-order:stroke markers fill"
       id="rect2-5"
       width="60.150085"
       height="45.653446"
       x="74.242462"
       y="242.77122" />
    <rect
       style="fill:#00ff00;stroke-width:1.54276;stroke-linecap:square;paint-order:stroke markers fill"
       id="rect2-8"
       width="60.150085"
       height="45.653446"
       x="135.72562"
       y="242.77122" />
    <rect
       style="fill:#00ff00;stroke-width:1.54276;stroke-linecap:square;paint-order:stroke markers fill"
       id="rect2-5-9"
       width="60.150085"
       height="45.653446"
       x="196.84479"
       y="242.77122" />
    <rect
       style="fill:#00ff00;stroke-width:1.54276;stroke-linecap:square;paint-order:stroke markers fill"
       id="rect2-1"
       width="60.150085"
       height="45.653446"
       x="258.00192"
       y="242.77122" />
    <rect
       style="fill:#00ff00;stroke-width:1.54276;stroke-linecap:square;paint-order:stroke markers fill"
       id="rect2-5-2"
       width="60.150085"
       height="45.653446"
       x="319.12109"
       y="242.77122" />
    <rect
       style="fill:#00ff00;stroke-width:1.54276;stroke-linecap:square;paint-order:stroke markers fill"
       id="rect2-8-9"
       width="60.150085"
       height="45.653446"
       x="380.60425"
       y="242.77122" />
    <rect
       style="fill:#ff00ff;stroke-width:1.54276;stroke-linecap:square;paint-order:stroke markers fill"
       id="rect2-5-9-3"
       width="60.150085"
       height="45.653446"
       x="441.72342"
       y="242.77122" />
    <rect
       style="fill:#00ff00;stroke-width:1.54276;stroke-linecap:square;paint-order:stroke markers fill"
       id="rect2-9"
       width="60.150085"
       height="45.653446"
       x="12.64545"
       y="338.65057" />
    <rect
       style="fill:#ff00ff;stroke-width:1.54276;stroke-linecap:square;paint-order:stroke markers fill"
       id="rect2-5-3"
       width="60.150085"
       height="45.653446"
       x="73.764618"
       y="338.65057" />
    <rect
       style="fill:#00ff00;stroke-width:1.54276;stroke-linecap:square;paint-order:stroke markers fill"
       id="rect2-8-7"
       width="60.150085"
       height="45.653446"
       x="135.24777"
       y="338.65057" />
    <rect
       style="fill:#ff00ff;stroke-width:1.54276;stroke-linecap:square;paint-order:stroke markers fill"
       id="rect2-5-9-4"
       width="60.150085"
       height="45.653446"
       x="196.36694"
       y="338.65057" />
    <rect
       style="fill:#00ff00;stroke-width:1.54276;stroke-linecap:square;paint-order:stroke markers fill"
       id="rect2-1-52"
       width="60.150085"
       height="45.653446"
       x="257.52408"
       y="338.65057" />
    <rect
       style="fill:#00ff00;stroke-width:1.54276;stroke-linecap:square;paint-order:stroke markers fill"
       id="rect2-5-2-54"
       width="60.150085"
       height="45.653446"
       x="318.64325"
       y="338.65057" />
    <rect
       style="fill:#ff00ff;stroke-width:1.54276;stroke-linecap:square;paint-order:stroke markers fill"
       id="rect2-8-9-7"
       width="60.150085"
       height="45.653446"
       x="380.1264"
       y="338.65057" />
    <rect
       style="fill:#ff00ff;stroke-width:1.54276;stroke-linecap:square;paint-order:stroke markers fill"
       id="rect2-5-9-3-4"
       width="60.150085"
       height="45.653446"
       x="441.24554"
       y="338.65057" />
    <path
       style="fill:#00ffff;stroke-width:1.74614;stroke-linecap:square;paint-order:stroke markers fill"
       id="path2"
       d="m 129.32908,32.524496 c -5.39838,0.824819 -5.95281,0.734159 -11.79291,2.56178 -2.45057,0.76689 -5.02285,1.329371 -7.2463,2.613779 -4.17691,2.412858 -7.49307,6.137696 -7.7504,11.238256 -0.141,2.794892 1.06508,5.494619 1.59762,8.241929 1.84745,3.215469 3.44956,6.584947 5.54235,9.646407 2.54832,3.727841 5.50558,7.160189 8.34612,10.670477 4.96511,6.135815 12.39453,14.407414 16.97606,20.963712 2.09085,2.992074 4.1733,6.036244 5.6893,9.356774 1.19312,2.61333 1.57742,5.52485 2.36612,8.28727 -0.68149,2.39018 -0.59032,5.15489 -2.04448,7.17053 -4.52675,6.27461 -15.13247,9.74963 -21.60801,11.4841 -7.31003,1.958 -14.79926,3.20156 -22.265973,4.43386 -18.083773,2.98452 -31.006337,3.97182 -49.132545,5.76052 0,0 11.758879,8.3655 11.758879,8.3655 v 0 c 17.664985,-1.79069 31.635283,-2.93531 49.241359,-5.85569 7.57406,-1.25634 15.18111,-2.48609 22.58597,-4.5141 7.35114,-2.01331 17.61487,-5.64303 22.49165,-12.53571 1.59185,-2.24987 1.59622,-5.27595 2.39434,-7.91393 -0.75112,-2.895 -1.06128,-5.94198 -2.25335,-8.68501 -1.47471,-3.39338 -3.56825,-6.49728 -5.66843,-9.54343 -2.45831,-3.56561 -5.255,-6.887185 -7.98034,-10.253102 -7.99027,-9.868324 -17.09001,-19.012203 -23.0277,-30.374113 -0.64596,-2.496602 -1.93678,-4.910993 -1.93787,-7.489807 -0.002,-4.746554 3.17532,-7.99782 7.02408,-10.111558 2.2206,-1.219551 4.75093,-1.773274 7.18086,-2.490095 5.55515,-1.638757 6.59116,-1.61621 11.78942,-2.33373 z" />
    <path
       style="fill:#00ffff;stroke-width:1.74614;stroke-linecap:square;paint-order:stroke markers fill"
       id="path3"
       d="m 178.45164,111.22767 c -3.80257,5.72376 -4.67892,12.28918 -3.27004,18.9933 0.37838,1.80051 1.05277,3.52586 1.57916,5.28878 2.62414,6.37884 6.33572,12.3499 11.98832,16.42543 14.20821,7.7801 9.04831,9.64523 14.73605,7.33334 0,0 -12.31837,-8.7354 -12.31837,-8.7354 v 0 c -4.61164,-2.11694 -0.51446,-0.25193 11.62689,6.87037 -0.46938,-0.26721 -0.96107,-0.49856 -1.40815,-0.80161 -5.20383,-3.52739 -8.4708,-9.15448 -11.09119,-14.70946 -0.56141,-1.68587 -1.26503,-3.33089 -1.68423,-5.05763 -1.5272,-6.29084 -0.89623,-12.5093 2.79838,-17.88187 z" />
    <path
       style="fill:#00ffff;stroke-width:1.74614;stroke-linecap:square;paint-order:stroke markers fill"
       id="path4"
       d="m 177.43952,140.59057 c 6.55506,0.53572 13.12242,0.50987 19.68716,0.22884 3.86969,-0.21103 2.03319,-0.0819 5.51063,-0.37103 0,0 -12.24365,-8.74839 -12.24365,-8.74839 v 0 c -3.43401,0.25871 -1.6171,0.14088 -5.45161,0.33963 -6.54421,0.23364 -13.09585,0.2063 -19.62053,-0.42754 z" />
    <path
       style="fill:#00ffff;stroke-width:1.74614;stroke-linecap:square;paint-order:stroke markers fill"
       id="path5"
       d="m 225.16584,133.58116 c 1.05395,0.077 2.11258,0.10524 3.16183,0.23094 2.45181,0.29371 5.78594,0.86454 8.11013,1.70095 1.27175,0.45767 4.85578,2.37281 3.66972,1.72467 -11.30473,-6.17754 -11.82917,-7.86655 -7.55055,-1.98552 1.42687,3.30302 2.67359,6.95652 2.16502,10.629 -0.0929,0.67102 -0.23102,1.41971 -0.70107,1.90751 -0.75904,0.78769 -3.09646,-0.24462 -3.53354,-0.37221 -2.7583,-0.89907 -5.42308,-2.18736 -8.30787,-2.66923 -1.23278,-0.20593 -3.57798,-0.42165 -4.75837,0.3919 -0.68971,0.47537 -1.01529,1.33263 -1.52293,1.99895 -0.15559,0.90202 -0.51103,1.7918 -0.46677,2.70607 0.13709,2.8324 2.11229,6.49033 4.576,7.9613 15.43605,9.21616 9.97545,9.18253 18.96093,8.19051 0,0 -12.19101,-8.78957 -12.19101,-8.78957 v 0 c -6.8135,-0.31959 -4.0623,-0.66996 7.17696,6.19969 0.86513,0.52878 -1.79934,-0.99058 -2.51942,-1.7044 -0.91568,-0.90771 -2.38674,-3.55135 -2.67148,-4.87284 -0.13829,-0.64185 0.044,-1.31241 0.066,-1.96862 0.31266,-0.36704 0.49962,-0.90034 0.93798,-1.10112 1.08695,-0.49782 3.35555,-0.0748 4.33851,0.14509 2.87426,0.64307 5.54781,1.95229 8.44705,2.50655 1.90962,-0.0272 3.25021,0.41702 4.62401,-1.30787 0.52967,-0.66503 0.77165,-1.54163 0.92035,-2.37871 0.68937,-3.88059 -0.5561,-7.83257 -1.80203,-11.43785 -0.68245,-1.18482 -0.95029,-2.73837 -2.04736,-3.55444 -3.15463,-2.34664 -13.18426,-9.29519 -19.72674,-11.32244 -3.71862,-1.15225 -7.64354,-1.50232 -11.50555,-1.74052 z" />
    <path
       style="fill:#00ffff;stroke-width:1.74614;stroke-linecap:square;paint-order:stroke markers fill"
       id="path6"
       d="m 261.91312,119.96087 c -2.81211,11.79412 -5.49182,23.62138 -8.30071,35.41767 -0.59166,3.56499 -1.81713,6.99941 -2.46241,10.55369 -0.13025,0.71743 -0.75372,1.74005 -0.17273,2.18064 4.21043,3.19296 8.75624,6.07443 13.65869,8.0464 0.83643,0.33645 1.3922,-1.14597 2.09627,-1.70908 0.8997,-0.71956 1.80992,-1.42587 2.71488,-2.13881 3.00204,-2.23281 6.33887,-4.26181 10.19116,-4.48422 0.95111,-0.0549 1.92679,0.041 2.84152,0.30731 0.78434,0.22831 2.89134,1.52208 2.16421,1.14979 -3.91417,-2.00405 -7.81703,-4.03012 -11.72555,-6.04518 0.0372,0.45985 0.32228,0.96916 0.11152,1.37955 -0.50533,0.98397 -2.99076,1.56036 -3.67363,1.71117 -1.36764,0.30205 -3.67166,0.56289 -5.10051,0.37736 -0.63684,-0.0827 -1.23017,-0.36921 -1.84525,-0.55382 0,0 12.00088,9.10054 12.00088,9.10054 v 0 c 0.68252,0.085 1.35985,0.24362 2.04754,0.25508 3.13577,0.0522 8.34149,-0.87164 9.95948,-3.98125 0.34939,-0.67149 0.19941,-1.50071 0.29912,-2.25107 -4.63192,-3.10013 -9.14462,-6.38626 -13.89576,-9.30038 -0.73051,-0.44805 -1.6137,-0.62669 -2.46394,-0.73383 -5.07665,-0.6397 -9.70935,2.22231 -13.61715,5.05926 -0.90099,0.68485 -1.76565,1.42034 -2.70297,2.05455 -4.76784,3.22598 -9.7426,-1.33613 10.33152,8.64283 0.58704,0.29183 -0.11599,-1.31828 -0.019,-1.96664 0.53496,-3.57547 1.8846,-7.00088 2.37682,-10.58217 2.77714,-11.75278 5.48192,-23.52573 8.41358,-35.24025 z" />
    <path
       style="fill:#00ffff;stroke-width:1.74614;stroke-linecap:square;paint-order:stroke markers fill"
       id="path7"
       d="m 321.30954,135.6902 c -6.27334,9.88095 -12.61653,19.71643 -18.82716,29.63715 -1.41825,2.31841 -4.34906,6.94451 -5.64241,9.60344 -0.70052,1.44015 -1.72972,3.5507 -1.19156,5.31037 0.19382,0.63379 0.57893,1.29631 1.16022,1.61467 5.0491,2.7653 10.36074,5.02157 15.5411,7.53235 1.15099,-0.15902 2.30885,-0.27442 3.45296,-0.47708 1.72328,-0.30524 7.47845,-1.61322 8.97057,-1.94823 4.66216,-1.04674 8.22896,-1.78118 12.8506,-3.13877 2.18842,-0.64283 4.33648,-1.41583 6.50471,-2.12374 2.87119,-1.49846 10.03883,-3.45291 9.69381,-8.08511 -0.0588,-0.78894 -0.44471,-1.69337 -1.13129,-2.08641 -15.11144,-8.65075 -10.66285,-9.84536 -18.55343,-6.01171 -0.79806,0.95203 -1.9415,1.69923 -2.39417,2.8561 -0.57635,1.47298 -0.67906,3.13346 -0.56681,4.71119 0.44809,6.29807 4.68526,11.03301 9.94791,14.08448 6.17758,3.58198 12.63264,6.66248 18.94896,9.99372 2.321,0.53239 4.61866,1.17942 6.96301,1.59718 7.09525,1.26437 14.99565,1.71585 22.20454,1.68339 1.96019,-0.009 3.91723,-0.15829 5.87584,-0.23744 0,0 -12.1272,-8.74492 -12.1272,-8.74492 v 0 c -1.93069,0.0598 -3.86047,0.18602 -5.79208,0.17948 -7.19972,-0.0244 -14.95333,-0.49617 -22.0129,-1.93599 -2.30479,-0.47007 -4.54983,-1.19635 -6.82474,-1.79452 2.21703,1.58605 4.56537,3.003 6.6511,4.75814 1.61559,1.35953 -3.64921,-2.17242 -5.23505,-3.56653 -1.45385,-1.27807 -2.83549,-2.71051 -3.80873,-4.38382 -1.06979,-1.83932 -2.16765,-6.28861 -1.35919,-8.58916 0.33609,-0.95637 1.35338,-1.50956 2.03008,-2.26434 6.7614,-2.29933 2.76683,-0.16194 -7.87319,-8.06902 -0.51561,-0.38317 1.45222,0.16736 1.7902,0.71366 1.23919,2.00295 -3.13795,4.18972 -3.46098,4.37544 -1.68605,0.96938 -3.53785,1.61661 -5.30677,2.42492 -2.151,0.68419 -4.28279,1.43198 -6.45298,2.05257 -4.47639,1.28006 -8.33867,2.07543 -12.86533,3.0619 -1.97871,0.4312 -6.73677,1.50185 -8.90777,1.78182 -1.08929,0.14046 -2.19223,0.13878 -3.28834,0.20817 3.51473,2.33059 7.14967,4.48933 10.54419,6.99176 0.46754,0.34467 -1.27444,-0.0435 -1.68127,-0.45803 -0.38977,-0.39719 -0.45026,-1.07858 -0.36654,-1.62874 0.15592,-1.02468 0.61844,-1.98538 1.05925,-2.92344 1.26084,-2.68306 4.1269,-7.23754 5.53731,-9.56871 6.18674,-9.9043 12.53026,-19.7076 18.92785,-29.47678 z" />
  </g>
</svg>
